<svg version="1.1" id="Layer_1" xmlns="http://www.w3.org/2000/svg" xmlns:xlink="http://www.w3.org/1999/xlink" x="0px" y="0px"
	 width="100%" viewBox="0 0 1024 960" enable-background="new 0 0 1024 960" xml:space="preserve">
<path fill="#000000" opacity="1.000000" stroke="none" 
	d="
M310.468658,961.000000 
	C309.020508,956.447571 308.031403,951.897156 307.065033,947.341980 
	C306.477112,944.570618 306.256012,941.799500 309.748749,940.852539 
	C313.291992,939.891907 314.349091,942.567871 315.322052,945.156189 
	C315.439209,945.467834 315.526642,945.790527 315.636658,946.105042 
	C320.115509,958.910889 317.318604,957.660034 332.300781,957.662964 
	C451.627869,957.686401 570.954956,957.679565 690.282043,957.681580 
	C697.667053,957.681702 697.680664,957.683472 699.682983,950.444885 
	C701.107727,945.294495 702.669373,940.128052 705.289734,935.508728 
	C707.764648,931.145752 707.158997,927.437561 704.980713,923.332764 
	C702.800537,919.224548 700.755554,914.998474 699.156433,910.638672 
	C696.765137,904.118835 696.779053,897.590759 700.489807,891.389709 
	C701.744385,889.293152 702.602051,886.916565 700.732544,884.881042 
	C692.456848,875.870117 693.823792,864.893616 694.272339,854.108337 
	C694.680542,844.294373 695.230408,834.486267 695.668274,824.673401 
	C695.725342,823.394104 696.041687,821.980957 694.753052,820.798767 
	C692.558044,820.140686 690.699524,821.523987 688.780151,822.332458 
	C627.847473,847.997864 566.930664,873.701172 506.005280,899.383850 
	C502.602844,900.818115 499.523895,902.617920 496.770264,905.176514 
	C486.508789,914.711609 471.559326,917.413147 459.800659,909.969116 
	C444.333588,900.177307 427.316620,893.832214 411.085907,885.778198 
	C384.525848,872.598694 357.702118,859.950500 330.981964,847.094055 
	C329.198914,846.236267 327.351349,845.512512 325.611206,844.759949 
	C323.611816,846.369812 324.346161,848.348938 324.340302,850.055420 
	C324.296356,862.887695 323.884064,875.743652 324.521118,888.545715 
	C325.051605,899.206116 321.033295,908.783875 319.088165,918.852539 
	C318.584839,921.457886 318.492310,924.149597 317.892670,926.727539 
	C317.236542,929.548218 316.985809,933.463684 312.927460,932.982727 
	C309.305756,932.553650 309.590668,928.899048 309.509613,926.118896 
	C309.373291,921.442871 309.517395,916.637634 311.069092,912.284485 
	C315.598846,899.576538 314.928528,886.342468 315.518921,873.257935 
	C315.954224,863.610840 315.643646,853.929443 315.635529,844.263367 
	C315.633484,841.810730 315.802277,839.186523 312.445221,838.563232 
	C310.611237,840.401123 311.329895,842.517395 311.345184,844.402710 
	C311.445496,856.733948 311.438782,869.052673 309.321655,881.259338 
	C309.095367,882.563965 308.910431,883.886353 308.543915,885.153625 
	C308.001343,887.029541 306.982605,888.582153 304.745239,888.447266 
	C302.534027,888.313782 301.705139,886.579712 301.195862,884.768066 
	C300.461609,882.156006 300.580963,879.456238 300.993958,876.824280 
	C302.940613,864.417725 302.708710,851.925537 302.677704,839.432739 
	C302.667267,835.223389 300.737946,832.828979 296.940979,831.057373 
	C293.203888,829.313660 290.610840,829.883728 287.616699,832.588379 
	C272.525024,846.220825 255.919205,840.164368 242.884430,827.467163 
	C238.912567,823.598083 236.042145,818.916504 233.646545,813.903320 
	C231.349579,809.096558 229.081161,804.296082 228.388077,801.484863 
	C231.088196,805.443848 226.220337,810.620911 225.240295,816.296509 
	C224.819885,818.731323 222.714127,818.774170 220.940552,817.586060 
	C219.777069,816.806580 218.938721,815.541687 217.839966,814.371948 
	C216.999008,816.361267 217.231995,818.241028 217.846466,819.862122 
	C219.827484,825.088623 217.020691,828.330750 213.275360,830.962402 
	C209.996094,833.266663 208.772736,830.329163 207.938919,828.023743 
	C205.999908,822.662659 205.678528,816.957886 204.854477,811.363770 
	C204.669144,810.105530 205.072113,808.627197 203.587402,807.722961 
	C201.319412,808.003845 200.995911,810.081787 200.323441,811.637085 
	C196.688263,820.044373 192.923050,828.409424 189.697815,836.975464 
	C187.042221,844.028625 186.895309,851.058716 192.849106,856.913086 
	C195.142593,859.168152 195.569168,862.164062 196.264771,865.067810 
	C199.689377,879.363953 203.799118,893.385376 211.963593,905.870422 
	C227.808746,930.100830 256.626282,936.298157 281.094421,920.748962 
	C288.338806,916.145203 292.688843,909.480042 295.573334,901.595703 
	C296.731750,898.429321 297.597107,893.661438 302.137482,895.095642 
	C306.268890,896.400757 304.348907,900.783691 303.691956,903.822083 
	C299.244476,924.391418 283.865570,933.069885 265.424835,937.111755 
	C237.309464,943.274109 211.861877,929.173767 198.507629,901.102295 
	C193.332321,890.223511 189.519592,878.893799 187.650070,866.961731 
	C187.223236,864.237427 186.085403,861.914673 184.361877,859.805298 
	C178.701355,852.877747 177.655289,845.111755 180.495468,836.795410 
	C184.374344,825.437927 189.013824,814.379700 194.479691,803.697998 
	C197.599243,797.601685 199.194473,791.295532 198.705383,784.456238 
	C198.438614,780.725525 197.578751,777.182007 195.235107,774.208130 
	C187.129715,763.923401 186.279633,752.313843 188.980209,740.093018 
	C190.166168,734.726135 191.473221,729.288513 194.167023,724.493713 
	C204.499588,706.102478 209.001434,685.737732 214.726013,665.743103 
	C228.096848,619.041809 239.829590,571.904602 252.532700,525.026428 
	C263.287476,485.338226 289.486115,461.783722 328.665588,451.661591 
	C334.141479,450.246887 339.658234,448.990753 345.152863,447.648071 
	C347.415588,447.095123 350.052765,446.174774 347.703186,443.447174 
	C341.137421,435.825012 341.984283,426.982574 343.488403,418.290283 
	C345.391815,407.290344 347.728394,396.408722 346.394226,385.141479 
	C344.807617,371.742401 341.939148,358.595825 338.782318,345.501587 
	C329.738831,307.989899 326.946960,269.859436 328.947113,231.473312 
	C331.723114,178.197159 347.809479,129.202591 379.400787,85.875267 
	C394.192963,65.587929 412.032074,48.491531 435.453644,38.121143 
	C446.716736,33.134171 458.449249,31.543966 470.598999,33.144440 
	C473.047852,33.467026 475.274506,33.270535 477.384094,32.224209 
	C514.514404,13.808125 548.337036,23.155191 580.228149,45.105759 
	C607.757446,64.054192 627.099548,90.347504 643.134033,119.132416 
	C663.866699,156.351425 676.758606,196.332596 681.978271,238.548813 
	C686.009888,271.156311 687.243958,303.938385 682.311951,336.646301 
	C680.846375,346.365570 678.769104,356.003357 675.472778,365.252380 
	C668.497131,384.825562 667.719360,404.573456 672.583618,424.679901 
	C673.163757,427.078308 673.198608,429.619995 673.369629,432.103302 
	C673.605896,435.532867 672.919006,438.539215 668.949524,439.370148 
	C666.998474,439.778473 666.886780,441.868958 665.245178,443.018738 
	C663.273254,440.451263 665.449890,437.932312 665.145691,435.473450 
	C663.979675,426.048981 661.362488,416.898987 660.470764,407.417664 
	C659.241760,394.351196 659.877869,381.700836 664.368286,369.161102 
	C667.388306,360.727905 669.132874,351.835449 671.380371,343.131012 
	C671.707886,341.862610 672.125671,340.323120 671.709839,339.202972 
	C667.900452,328.939880 671.625061,319.023865 673.426880,309.200165 
	C675.093689,300.112335 676.123169,291.111053 675.824463,281.914551 
	C674.634949,245.286743 670.086914,209.207169 657.741211,174.477631 
	C643.918213,135.592377 624.760193,99.807846 595.358704,70.277908 
	C580.253967,55.107224 563.093506,42.870068 542.212891,36.789944 
	C523.298706,31.282412 504.322327,30.763704 485.968781,38.621536 
	C479.521759,41.381748 474.054474,43.199825 466.477203,42.389210 
	C445.787964,40.175869 428.682281,49.700508 413.627747,63.040512 
	C371.643433,100.243332 350.622925,148.398804 341.210022,202.524948 
	C336.527161,229.452362 337.593109,256.606720 338.329132,283.738037 
	C338.351593,284.566101 338.331757,285.453400 338.616547,286.205170 
	C339.409302,288.297760 339.597809,291.303650 342.700531,291.071899 
	C345.596039,290.855621 345.349121,288.041260 345.619537,285.988953 
	C346.536926,279.026947 347.453705,272.076843 351.902374,266.256958 
	C356.351288,260.436768 362.120514,257.178680 369.586151,257.932922 
	C374.861481,258.465881 379.215454,257.093658 383.497650,253.866241 
	C400.169952,241.300629 410.561859,224.274063 418.658539,205.531464 
	C425.726562,189.169998 430.684540,171.952347 438.748810,155.994888 
	C439.876099,153.764206 440.992828,151.527084 442.174713,149.325287 
	C449.218689,136.202805 457.874847,125.766006 475.550812,130.047562 
	C476.199585,124.785004 473.919952,120.392105 472.853546,115.827065 
	C472.211609,113.078987 471.185547,110.417984 470.282349,107.734619 
	C469.769257,106.210320 469.431274,104.721619 471.274109,103.913933 
	C473.001801,103.156693 474.156616,104.137085 474.967010,105.548790 
	C477.303650,109.619080 478.795929,114.039406 480.252655,118.474380 
	C480.915131,120.491310 481.178345,122.716576 482.989807,124.199600 
	C484.872894,124.308128 486.144501,123.073128 487.467834,122.167999 
	C495.459961,116.701660 503.572052,117.076797 512.101624,120.976738 
	C532.791504,130.436676 548.215149,145.703552 560.674805,164.332703 
	C570.297852,178.720749 578.711182,193.968536 590.831665,206.577927 
	C598.603149,214.662918 607.204041,221.272018 618.789307,222.754791 
	C620.105408,222.923218 621.475159,223.090698 621.974548,225.071152 
	C619.604370,228.077042 616.322205,228.364380 612.747070,227.770401 
	C604.002747,226.317627 596.938660,221.718872 590.759583,215.683975 
	C578.472900,203.683945 569.783752,189.016754 560.753906,174.621979 
	C556.497620,167.836945 551.929382,161.284409 546.881531,155.068726 
	C545.863831,153.815521 545.113159,152.205643 542.991943,151.857147 
	C541.592712,153.463776 542.678040,154.919327 543.489319,156.228348 
	C558.310669,180.142563 571.981934,204.805466 590.359497,226.374008 
	C597.166138,234.362534 606.307007,238.688492 615.032837,243.683487 
	C619.212219,246.075897 623.484680,244.325974 627.187988,241.657745 
	C629.484070,240.003372 631.605896,238.105347 633.916504,236.473160 
	C642.049316,230.728241 650.211182,232.144623 656.071106,240.289734 
	C660.929932,247.043350 662.732666,254.952225 662.984436,262.927063 
	C663.652893,284.100861 659.156494,303.963165 645.973022,321.182068 
	C641.987488,326.387665 637.145569,330.713226 631.851624,334.525177 
	C627.470764,337.679565 624.971619,341.576782 623.892334,347.133545 
	C620.832703,362.887512 614.452759,377.623199 608.737793,392.543793 
	C605.399231,401.260040 602.488342,410.119995 600.554932,419.256409 
	C599.197937,425.668762 599.910950,426.590454 606.116760,428.666687 
	C636.126648,438.707153 667.017700,445.654755 697.314270,454.684784 
	C704.810974,456.919220 712.247925,459.360474 719.677856,461.811157 
	C740.966064,468.832855 755.743958,482.611725 763.370483,503.877563 
	C770.230774,523.007141 775.543640,542.608337 781.248291,562.088074 
	C791.067688,595.618713 798.876709,629.679016 807.794312,663.439819 
	C813.689148,685.757141 822.398376,707.327454 829.735535,729.269714 
	C832.171997,736.555908 834.944336,743.591370 839.072327,750.168030 
	C843.862488,757.799438 843.930786,765.819397 837.924683,772.918518 
	C831.963989,779.964111 832.784180,788.028564 833.367554,796.183777 
	C833.413391,796.824463 833.554199,797.624695 833.963806,798.048401 
	C841.684204,806.035522 841.807556,816.585327 843.028381,826.508362 
	C844.846802,841.288696 844.066650,856.061829 840.142700,870.568176 
	C832.983215,897.036011 813.240295,912.020142 786.995789,910.168335 
	C766.865112,908.747864 751.531677,898.406128 739.875916,882.490784 
	C727.480286,865.565308 722.147034,845.706604 717.756775,825.634277 
	C713.818726,807.629395 713.137512,789.342529 714.792725,771.001465 
	C715.110657,767.477905 714.856812,762.694641 718.908142,761.550842 
	C723.215698,760.334717 725.526367,764.465393 727.678223,767.650146 
	C734.984985,778.464050 739.303955,790.880920 746.069092,801.991455 
	C748.852722,806.563110 751.668518,811.100647 755.896057,814.499146 
	C763.027344,820.231812 770.965454,818.772034 775.031494,810.611572 
	C783.060303,794.497864 786.881409,777.130676 789.708313,759.480530 
	C791.988281,745.245300 788.925293,731.300720 787.707336,717.259277 
	C787.266846,712.181641 785.202087,707.569702 781.854858,703.685852 
	C778.618896,699.931091 777.458557,695.714966 777.623230,690.780823 
	C777.855896,683.809753 778.357483,676.796265 776.717896,669.877136 
	C775.181274,663.392151 772.518555,657.724487 767.069336,653.446045 
	C760.290222,648.123657 755.143311,641.558228 751.976196,633.326965 
	C746.842102,619.983826 740.541931,618.265747 727.389038,624.197449 
	C713.321472,630.541748 701.779907,640.224548 690.112915,649.863525 
	C686.520020,652.831848 683.127136,656.046082 679.704773,659.214722 
	C678.528137,660.304199 676.776794,661.420898 677.713440,663.348083 
	C678.597290,665.166687 680.590881,664.680969 682.210876,664.698486 
	C686.117554,664.740601 689.751648,663.475525 693.342590,662.145569 
	C698.980713,660.057190 704.402161,657.452454 709.543762,654.363159 
	C717.934937,649.321411 727.120972,646.415833 736.475647,643.959839 
	C739.116394,643.266541 742.396179,642.103088 744.038513,645.504272 
	C745.662109,648.866577 745.447205,652.497314 742.535095,655.187195 
	C740.609802,656.965637 738.282166,658.421387 735.924438,659.601807 
	C707.116394,674.024414 681.949036,693.812195 656.633423,713.370728 
	C654.229736,715.227783 651.367065,717.009766 650.896912,720.830627 
	C654.226013,723.002380 657.299133,721.388000 660.253662,720.155151 
	C674.416809,714.244995 687.839966,706.801697 701.577515,700.011047 
	C715.917847,692.922485 730.264648,685.863892 745.217712,680.128052 
	C746.458313,679.652161 747.696838,679.082458 748.989075,678.851379 
	C750.642456,678.555786 752.393372,678.480591 753.270325,680.438416 
	C754.216064,682.549927 753.139160,684.030945 751.518860,685.099426 
	C750.141296,686.007935 748.563782,686.613403 747.074402,687.352356 
	C719.316589,701.123230 691.594360,714.960876 665.291565,731.429260 
	C663.885559,732.309631 662.521057,733.303833 661.303711,734.425659 
	C659.854675,735.760925 658.074463,737.205383 658.893372,739.483826 
	C659.716370,741.773804 661.948364,741.715271 663.969666,741.819580 
	C669.266541,742.092590 674.242737,740.603577 679.011414,738.640808 
	C696.106323,731.604858 713.123230,724.379578 730.173645,717.235535 
	C737.854370,714.017395 745.534485,710.797302 753.236389,707.630371 
	C755.622620,706.649170 758.305054,705.765747 759.732910,708.846069 
	C761.139282,711.880066 758.821533,713.605835 756.527100,714.674988 
	C746.113098,719.527100 735.670166,724.323486 725.147949,728.935364 
	C712.640808,734.417297 700.036560,739.677490 687.489868,745.069885 
	C685.989014,745.714966 684.585083,746.585571 682.629700,747.619568 
	C684.954041,749.260498 686.760681,748.495728 688.550964,747.958252 
	C712.463501,740.779846 736.425781,733.785645 760.836426,728.454041 
	C762.134094,728.170654 763.432251,727.852112 764.747437,727.693542 
	C767.821228,727.323120 771.189392,727.033752 772.042297,730.950989 
	C772.896973,734.876343 769.410828,735.567810 766.776245,736.267334 
	C759.865356,738.102173 752.877563,739.645691 745.930481,741.346741 
	C743.704041,741.891907 741.327148,742.060059 738.939087,743.971191 
	C747.637207,747.544556 756.011047,747.316711 764.425964,744.728943 
	C767.761414,743.703247 770.929260,742.136536 774.257996,741.083801 
	C776.246094,740.455139 778.780945,739.573914 779.969543,742.215759 
	C781.029541,744.571777 779.515747,746.523071 777.562866,747.658813 
	C771.150391,751.388062 764.633484,754.937561 758.176941,758.544800 
	C759.688538,759.446960 762.084717,760.123535 761.705444,762.789551 
	C761.383118,765.054932 759.380859,765.945984 757.549622,766.735474 
	C752.953125,768.716797 748.272949,770.512573 743.202332,770.764954 
	C740.772888,770.885864 738.159424,770.398010 737.503723,767.739197 
	C736.772461,764.773865 739.633667,764.445740 741.569336,763.746704 
	C745.305237,762.397522 749.089783,761.182861 753.600220,759.660645 
	C745.940796,759.065735 738.666931,763.436340 731.939636,759.039185 
	C732.666382,755.879150 735.272827,756.612671 736.416443,754.970154 
	C733.095825,753.383240 729.403687,752.485352 727.987122,748.477600 
	C727.499512,747.097839 725.692505,747.208923 724.395203,747.405396 
	C722.100403,747.753052 719.840149,748.328491 717.565430,748.808777 
	C713.742493,749.616150 712.324402,751.802551 712.154846,755.860779 
	C711.453308,772.648926 712.228210,789.934387 707.938232,805.989380 
	C703.017517,824.404968 704.835327,842.931885 702.546509,861.287781 
	C701.748657,867.685974 702.987183,873.633667 708.014465,878.694946 
	C713.416443,884.133179 713.527222,887.922424 709.583496,894.365234 
	C706.832520,898.859497 706.336365,903.406006 708.257690,908.194397 
	C709.306091,910.807373 710.410706,913.479065 711.987305,915.784119 
	C717.905518,924.436829 718.989319,933.062988 713.252869,942.352966 
	C709.906067,947.773010 708.595886,954.067505 707.136841,960.633057 
	C574.979126,961.000000 442.958221,961.000000 310.468658,961.000000 
M445.819702,400.659882 
	C457.781403,409.163727 469.907135,417.438904 483.354706,423.450073 
	C504.972046,433.113220 525.404480,431.278931 544.449463,416.715118 
	C556.787109,407.280518 568.426208,397.049316 579.213379,385.908813 
	C593.469360,371.185883 603.331787,353.735413 609.735168,334.322632 
	C610.991394,330.514160 613.114014,328.387726 617.311829,328.568695 
	C621.623108,328.754608 625.573669,327.484467 628.972046,324.834015 
	C636.422180,319.023590 642.723877,312.257599 646.499573,303.411530 
	C650.189209,294.767090 652.646790,285.728729 653.450928,276.438782 
	C654.238770,267.337769 654.433228,258.062286 650.568848,249.387772 
	C647.736572,243.030136 642.991394,241.756378 637.234497,245.597214 
	C636.264832,246.244125 635.330505,246.944809 634.390503,247.635086 
	C624.068054,255.215500 614.201477,255.457001 603.398254,248.550797 
	C597.425964,244.732880 592.730164,239.519211 587.759705,234.610672 
	C584.431396,231.323807 580.903748,230.044907 576.050720,230.880066 
	C565.865112,232.632904 557.102417,236.874619 549.467896,243.758575 
	C547.958252,245.119766 545.907532,247.047699 543.778137,245.009949 
	C541.478699,242.809433 543.335754,240.653061 544.806213,238.895737 
	C546.181580,237.252060 547.790527,235.748840 549.497925,234.447906 
	C555.538147,229.845612 562.411438,226.907761 569.629700,224.707550 
	C571.342834,224.185364 573.270935,224.075867 574.746033,221.789993 
	C571.401489,216.962067 567.765564,212.048859 564.480103,206.911484 
	C551.735596,186.982880 539.241028,166.893005 526.356506,147.056000 
	C521.531006,139.626694 515.876648,132.761810 506.817047,129.962982 
	C498.806641,127.488304 493.079834,129.158188 488.016541,135.706894 
	C485.318054,139.196991 482.286713,140.856781 477.661774,139.463821 
	C466.031830,135.961060 458.147308,141.290726 452.038513,150.730942 
	C446.295319,159.606155 442.068970,169.199554 438.447174,179.056793 
	C432.358337,195.628357 426.570221,212.312195 418.576538,228.110428 
	C418.068146,229.115204 417.406372,230.173279 417.971191,231.411865 
	C420.788788,232.655914 420.790283,232.739899 423.589966,232.690445 
	C435.646301,232.477448 446.580658,236.076111 456.588470,242.569916 
	C459.139313,244.225067 463.961121,245.674271 461.444580,249.722153 
	C459.183197,253.359558 455.671783,250.000946 453.134247,248.598877 
	C442.091248,242.497192 430.548309,238.968552 417.746521,240.110657 
	C412.107117,240.613785 407.593567,242.497665 404.055603,247.117081 
	C400.203156,252.147156 395.778625,256.754333 390.555267,260.393799 
	C383.800873,265.100067 376.898102,269.349579 367.915771,266.717651 
	C365.140594,265.904480 362.431793,267.174103 360.433716,270.336884 
	C364.202728,272.777222 368.356110,274.162567 371.593994,277.021790 
	C377.146484,281.924896 381.197144,290.647766 378.102570,295.056305 
	C372.507294,303.027435 374.202301,308.033234 381.897644,312.909424 
	C384.581085,314.609833 386.418762,318.294556 384.317047,321.745636 
	C382.062103,325.448303 378.307739,324.809540 374.907654,323.583984 
	C363.583252,319.502197 359.435394,304.635864 366.806152,294.867035 
	C370.919403,289.415558 370.824402,287.726715 365.981689,282.855927 
	C363.398315,280.257629 360.371613,278.285797 357.055695,276.480011 
	C354.964111,278.848450 354.540833,281.496216 354.363739,284.095154 
	C353.111084,302.478485 357.881073,319.053528 369.566467,333.451965 
	C374.307068,339.293213 380.151031,343.564850 387.611572,345.295715 
	C389.562286,345.748291 391.426025,346.074646 393.148468,344.311615 
	C398.314301,339.024139 401.007080,339.681885 403.155090,346.875214 
	C404.876129,352.638672 406.874695,358.239929 409.741333,363.556549 
	C418.138947,379.131195 431.381989,389.971100 445.819702,400.659882 
M659.183289,749.949036 
	C652.130493,747.700562 648.618042,743.113892 649.714355,736.295349 
	C650.311279,732.582397 649.653015,730.638672 646.166809,728.993713 
	C643.050354,727.523254 642.184448,724.229614 642.344604,720.865417 
	C642.556458,716.413208 644.797363,713.035522 648.080994,710.179016 
	C659.908630,699.890015 672.432922,690.486084 684.898926,681.003723 
	C687.178162,679.270020 691.352783,677.857849 690.187073,674.635193 
	C689.041687,671.468567 685.188232,673.768433 682.541870,673.822571 
	C675.542542,673.965942 669.668213,671.141357 667.946411,666.259583 
	C665.746826,660.023071 669.732544,656.224182 673.837402,652.633728 
	C684.748840,643.089783 695.597290,633.452942 707.455627,625.080811 
	C711.269226,622.388367 712.846375,619.065796 712.768066,614.521973 
	C712.517822,599.998352 714.612610,585.613647 715.439880,571.155396 
	C715.802368,564.819824 718.213379,558.360168 715.399170,552.004395 
	C712.739136,551.431946 710.668579,552.550171 708.569031,553.509583 
	C641.609680,584.104736 574.664490,614.731018 507.655884,645.218018 
	C504.210144,646.785645 503.056000,648.696289 503.064911,652.376709 
	C503.190430,704.209106 503.177002,756.041748 503.238159,807.874329 
	C503.240204,809.620300 502.689484,811.544678 503.978668,812.978271 
	C505.738922,813.700928 507.165039,811.502441 509.446167,813.225220 
	C502.655609,816.987671 502.119965,822.694946 504.112793,829.695312 
	C507.167877,828.268311 509.784424,826.830933 512.555542,825.815063 
	C515.086914,824.887207 517.773682,822.593384 521.000549,825.927795 
	C516.877197,829.330505 512.058044,830.808533 507.784241,833.200928 
	C502.857574,835.958801 502.265472,837.577820 504.516785,843.845215 
	C512.499817,840.107483 520.408997,836.322571 528.402649,832.725281 
	C530.157410,831.935608 532.617859,829.401978 534.016846,832.106018 
	C535.370239,834.721802 531.903198,835.211853 530.310486,836.406128 
	C529.782959,836.801697 529.158142,837.074463 528.560852,837.369019 
	C521.240662,840.979492 513.896912,844.543091 506.604218,848.208313 
	C503.529907,849.753418 502.049500,854.403564 503.685059,857.681335 
	C505.694244,861.707947 508.372559,858.714600 510.421844,857.816772 
	C521.863525,852.804016 533.179993,847.506287 544.596375,842.434570 
	C546.360107,841.651062 548.338623,840.167725 550.562073,841.833862 
	C549.908508,844.778748 547.503235,845.460388 545.491516,846.409485 
	C532.696777,852.445923 520.247131,859.231812 507.014526,864.317139 
	C503.274567,865.754395 503.015930,868.557434 504.008545,871.648132 
	C505.210541,875.390869 507.799103,873.302368 509.705231,872.462646 
	C520.375061,867.761963 530.998840,862.955688 541.610474,858.124268 
	C557.832458,850.738525 574.019775,843.276367 590.255493,835.920898 
	C592.369202,834.963379 594.633850,833.767761 597.593018,836.540344 
	C567.933716,850.788391 538.274475,865.036438 508.161041,879.502686 
	C510.780548,882.191345 513.266113,881.612305 515.552185,880.801270 
	C520.651306,878.992188 525.988647,878.692749 531.268005,878.142151 
	C534.141479,877.842468 536.834045,877.176025 539.454468,876.083252 
	C566.970032,864.608643 594.511414,853.195129 621.982849,841.615784 
	C645.161499,831.845886 668.221863,821.795166 691.414856,812.059753 
	C697.182373,809.638855 699.791077,806.055847 699.937256,799.579895 
	C700.166138,789.441406 701.219910,779.305237 702.284729,769.206116 
	C703.585938,756.865173 702.330933,755.666870 689.844482,756.996094 
	C684.478516,757.567383 677.857300,759.510986 674.058716,755.089294 
	C669.875244,750.219604 665.374451,749.852112 659.183289,749.949036 
M791.818237,702.806702 
	C794.950684,708.584961 796.979492,714.675415 797.393066,721.294617 
	C798.259583,735.163452 801.374146,748.163086 811.819641,758.347290 
	C813.346924,759.836365 814.333374,761.867432 815.657349,763.580261 
	C818.459778,767.205627 821.319763,770.786499 824.450317,774.758850 
	C826.619995,771.680542 828.142029,769.093933 830.077820,766.867004 
	C833.694397,762.706360 833.786316,758.260437 830.925476,753.995911 
	C826.013184,746.673828 823.639404,738.361633 820.633911,730.245483 
	C809.411011,699.938660 799.296265,669.310913 791.788818,637.834351 
	C781.902039,596.382385 769.464294,555.628235 757.713928,514.683899 
	C750.852661,490.775757 735.627563,475.747528 712.036316,468.749908 
	C709.004272,467.850525 706.020874,466.781952 702.975708,465.932556 
	C669.474304,456.587921 635.842651,447.707367 602.538696,437.656525 
	C599.916504,436.865204 597.274170,435.607483 594.535645,435.942047 
	C593.132507,437.085114 593.392151,438.492737 593.373718,439.790314 
	C593.010071,465.485565 581.161316,485.536316 561.781433,501.176819 
	C540.278931,518.530396 515.318542,522.023438 488.613373,517.353271 
	C451.403198,510.846008 421.293152,479.126892 417.987885,441.853760 
	C417.325439,434.383667 416.338257,434.546112 410.274445,437.459076 
	C402.148499,441.362671 393.935577,444.916687 385.240479,447.350922 
	C366.006714,452.735504 346.148651,455.449738 326.988251,461.186188 
	C307.339691,467.068787 290.323853,476.782654 277.444885,493.141296 
	C267.286591,506.044220 262.334839,521.160889 258.279755,536.708618 
	C257.559692,539.469482 256.351593,542.388428 260.505035,543.566284 
	C266.987335,545.404602 269.423859,544.541748 270.356354,539.578613 
	C271.876312,531.488647 274.698212,523.860596 278.091553,516.427795 
	C282.603729,506.544067 283.844391,506.055267 293.349701,511.281342 
	C329.123444,530.949829 365.571625,549.324280 401.924469,567.876099 
	C426.697235,580.518372 450.832001,593.880981 468.035889,616.716187 
	C470.600800,620.120605 472.752411,619.434875 474.853821,616.016785 
	C480.207184,607.309265 486.911133,599.658020 494.105438,592.457703 
	C529.583008,556.950562 572.599609,535.209045 620.817017,522.734863 
	C644.147705,516.699036 667.987000,512.231628 689.933350,501.563110 
	C694.400269,499.391632 697.071472,500.955017 698.308960,506.085632 
	C700.062500,513.356201 701.624390,520.679077 703.023987,528.026123 
	C703.650452,531.314575 705.059631,532.742920 708.569580,533.057617 
	C719.465027,534.034485 725.775757,542.577393 724.953430,553.691345 
	C723.529114,572.941528 722.485962,592.220276 721.352051,611.491028 
	C721.261292,613.033386 720.641846,614.846497 722.586182,616.312744 
	C725.233215,615.314697 727.973511,614.147766 730.797119,613.240173 
	C742.602844,609.445557 750.745300,612.380310 757.302124,622.880310 
	C759.061035,625.696899 760.658325,628.663208 761.925781,631.727905 
	C764.733337,638.516602 768.930908,644.124390 774.725281,648.662842 
	C779.012268,652.020630 781.756714,656.513611 783.685425,661.643494 
	C786.918884,670.243835 787.853699,679.132385 787.316040,688.174438 
	C787.002502,693.447571 788.151306,698.060181 791.818237,702.806702 
M446.729156,850.500000 
	C446.064545,809.182983 445.350494,767.866638 444.815369,726.547974 
	C444.764526,722.620056 443.194885,720.976868 439.664093,719.890869 
	C436.366913,718.876709 432.332855,719.138306 429.938660,715.580566 
	C432.749329,712.479248 435.730835,714.875122 438.473083,714.985046 
	C440.871216,715.081116 443.696442,716.776306 444.497559,712.968872 
	C445.180939,709.721008 445.029846,706.664429 440.938171,705.356323 
	C435.705872,703.683533 430.537598,701.800720 425.389740,699.879700 
	C423.854492,699.306824 421.533539,699.381897 421.653442,696.672058 
	C423.461914,695.050171 425.427979,695.796509 427.308838,696.272583 
	C431.502472,697.333862 435.655182,698.561035 439.861359,699.566711 
	C441.281525,699.906311 443.051178,700.121216 443.587646,698.134521 
	C444.030212,696.495422 444.105927,694.656860 442.400024,693.645996 
	C440.840698,692.722107 439.105225,692.052246 437.384033,691.452148 
	C429.837097,688.821045 422.255768,686.288208 414.714020,683.642517 
	C412.937103,683.019226 410.649109,682.690796 410.963074,679.861267 
	C412.990997,677.884277 415.067566,679.131775 417.048096,679.723694 
	C424.386688,681.917053 431.685852,684.243835 439.038757,686.387024 
	C440.545135,686.826111 442.574982,687.408569 443.395813,685.317688 
	C444.188202,683.299377 443.759430,681.287537 441.682861,680.126160 
	C439.798798,679.072449 437.840302,678.129761 435.849579,677.292847 
	C427.865448,673.936584 419.837616,670.683655 411.869690,667.289917 
	C410.019287,666.501770 407.704956,665.951599 407.442780,663.229858 
	C410.038177,661.945374 412.207245,662.980042 414.343903,663.811218 
	C421.794281,666.709534 429.197937,669.729736 436.674255,672.558533 
	C438.579681,673.279480 440.868896,674.868713 442.673676,672.732422 
	C444.401428,670.687256 444.063751,667.959351 443.515228,665.527588 
	C442.953369,663.036743 440.402710,662.680908 438.489746,661.862305 
	C425.161682,656.159424 411.594604,651.074707 397.877716,646.385193 
	C396.237335,645.824402 394.134125,645.742188 393.893707,643.226685 
	C395.535553,640.927917 397.719666,641.822571 399.759430,642.301453 
	C407.399139,644.095337 414.745422,646.790649 422.047791,649.625000 
	C427.791901,651.854614 433.563690,654.013428 439.336334,656.168579 
	C440.473999,656.593262 441.725861,656.773987 442.354706,655.385986 
	C442.989319,653.985168 441.970642,653.217224 440.928741,652.618591 
	C440.211456,652.206421 439.395966,651.969421 438.647034,651.607239 
	C422.904022,643.994385 407.159363,636.384827 391.429169,628.745422 
	C389.105713,627.617065 386.577911,626.144714 387.880768,623.113464 
	C389.384430,619.614868 392.323669,621.015076 394.741882,622.116760 
	C404.139740,626.398438 413.493866,630.776367 422.857330,635.133240 
	C428.745483,637.872925 434.561310,640.780090 440.533386,643.321045 
	C442.788269,644.280396 445.779602,644.920837 447.260284,642.137207 
	C448.806305,639.230896 445.877350,638.061035 444.108643,636.776062 
	C432.690430,628.480286 419.840759,622.890808 406.920929,617.499084 
	C371.884125,602.877380 336.246490,589.668396 302.147003,572.845764 
	C301.636688,572.593994 300.980469,572.128723 300.317108,573.327820 
	C309.676819,578.373962 318.979034,583.503723 328.386078,588.433411 
	C342.109192,595.625061 355.924713,602.640259 369.657166,609.814331 
	C371.917145,610.994995 374.304260,612.783936 372.893616,615.694092 
	C371.381866,618.812927 368.616943,617.413330 366.371674,616.367981 
	C360.936584,613.837463 355.518646,611.261963 350.175446,608.544067 
	C323.897369,595.177490 297.652893,581.744812 271.369019,568.389648 
	C269.624817,567.503418 267.828217,565.944885 265.231110,567.292847 
	C267.542511,571.002808 270.966522,572.645142 274.341339,574.364929 
	C286.213409,580.415039 298.111969,586.414917 309.913727,592.599426 
	C312.020905,593.703674 314.897949,594.627319 314.755768,597.945862 
	C312.904114,598.881348 311.588715,598.054565 310.241455,597.437561 
	C295.250244,590.571533 280.262756,583.697571 265.260986,576.854797 
	C263.858612,576.215088 262.215332,574.612854 260.937683,576.783630 
	C259.865814,578.604858 261.307770,579.944031 262.592529,581.019714 
	C265.403870,583.373657 268.203430,585.882080 271.723022,587.050232 
	C283.736603,591.037598 293.473572,599.271423 304.777832,604.563660 
	C305.818848,605.051147 306.988770,605.502197 306.477905,608.312927 
	C292.004578,603.690979 279.617645,594.148010 264.805695,590.962952 
	C262.767731,595.519714 265.059235,597.766174 268.265381,599.375977 
	C278.236237,604.382202 288.274231,609.254700 298.255157,614.241150 
	C299.901947,615.063843 302.301453,615.315491 302.017090,619.248657 
	C289.183746,615.917908 278.367828,608.079224 265.968079,604.510193 
	C263.875275,612.311340 264.115753,613.034729 270.008179,616.303772 
	C274.668427,618.889160 279.434937,621.287537 284.038635,623.967651 
	C285.573975,624.861511 287.907074,625.546692 287.093597,628.980469 
	C279.760681,627.546143 274.111023,621.911865 266.687408,620.417358 
	C265.879486,624.207214 265.037781,627.487488 267.351349,630.439026 
	C271.320740,635.502930 271.373260,635.461731 265.520538,636.402405 
	C264.896301,638.642029 265.970703,640.368286 267.492096,641.710449 
	C278.603638,651.513245 289.728485,661.302063 300.937683,670.992798 
	C311.004944,679.696350 318.540955,690.422119 325.484070,701.589294 
	C327.981964,705.606812 326.795319,709.315369 322.814941,711.929199 
	C319.037262,714.409973 319.519989,717.357605 321.932037,720.343750 
	C323.281586,722.014587 324.996368,723.396545 326.585785,724.866333 
	C331.596161,729.499512 337.015228,733.694702 341.400696,738.993896 
	C346.076477,744.643860 346.805328,750.701599 343.158844,757.043762 
	C341.559753,759.824890 341.190674,762.354309 341.908875,765.553101 
	C343.304657,771.769714 339.244720,776.795715 332.845367,777.268677 
	C329.358551,777.526489 325.866669,777.439819 322.417908,776.543640 
	C319.710541,775.840149 317.233490,776.104004 315.168152,778.481934 
	C311.789368,782.372253 307.165619,782.954773 302.374054,782.665344 
	C297.534363,782.372864 292.831451,781.256287 288.162964,780.003906 
	C286.375214,779.524414 284.606018,779.182068 282.765900,779.822266 
	C272.528137,783.383972 268.620636,798.808960 276.024567,807.045166 
	C280.265533,811.762695 285.222992,815.569641 291.072144,818.307800 
	C309.777008,827.063782 328.351868,836.097229 347.044739,844.879211 
	C359.836670,850.888916 372.887939,856.366882 385.507690,862.710388 
	C389.316833,864.625183 393.080292,863.229980 396.576416,864.562012 
	C400.458405,866.041077 404.039307,868.774109 408.011475,869.464722 
	C419.361450,871.437988 428.092346,877.968994 436.803345,884.666565 
	C438.921967,886.295471 440.462616,888.398010 443.707245,886.735107 
	C446.727783,885.187073 446.854553,882.687378 446.852142,879.999146 
	C446.843658,870.499451 446.776123,860.999695 446.729156,850.500000 
M309.988281,764.465454 
	C315.844604,767.388123 321.973206,769.400818 328.494568,770.220581 
	C331.122742,770.550964 333.243134,769.837891 334.301422,767.423218 
	C335.437103,764.831909 333.522308,763.393188 331.614838,762.239319 
	C329.052246,760.689026 326.396057,759.294434 323.799500,757.799133 
	C301.870300,745.170288 280.869415,730.914490 257.858856,720.179138 
	C257.111145,719.830261 256.393768,719.371460 255.749252,718.855286 
	C254.192490,717.608398 253.208527,716.065918 254.371460,714.099609 
	C255.450333,712.275391 257.191742,711.842102 259.146484,712.535278 
	C260.397736,712.978943 261.616943,713.534119 262.806183,714.128052 
	C277.120270,721.275818 291.050812,729.110291 304.745270,737.382324 
	C313.009979,742.374634 321.364716,747.224426 329.790009,751.939941 
	C332.212097,753.295532 335.166504,753.556335 337.007385,750.892700 
	C338.881226,748.181152 337.406952,745.740479 335.280060,743.860901 
	C318.202362,728.768616 301.997131,712.565918 280.754242,702.936340 
	C273.958649,699.855774 267.473053,695.910889 261.973083,690.723206 
	C258.493713,687.441345 257.967712,682.850281 260.455505,679.915588 
	C263.532654,676.285767 266.581696,678.705017 269.320160,680.391418 
	C278.396484,685.980652 287.365448,691.744446 296.367432,697.454163 
	C301.598999,700.772339 307.073944,703.544250 313.110168,705.100952 
	C314.579315,705.479797 316.145844,706.057312 317.209930,704.514709 
	C318.260620,702.991638 317.261200,701.604309 316.367249,700.422974 
	C314.862000,698.433960 313.266724,696.505615 311.610779,694.639221 
	C300.630890,682.263855 287.671143,671.967285 275.778320,660.549866 
	C272.405396,657.311829 268.965240,654.191711 264.966156,651.718323 
	C261.249664,649.419678 257.615723,649.210144 253.643738,651.241699 
	C248.310074,653.969788 245.367294,658.285217 244.243103,664.012512 
	C242.802872,671.349976 240.433655,677.687134 233.257782,681.963989 
	C226.597168,685.933655 224.258911,692.797058 225.700409,700.670898 
	C226.859161,707.000366 225.634750,712.919250 222.287582,718.404175 
	C220.891586,720.691772 219.752411,723.081787 219.166870,725.719604 
	C216.725845,736.716248 220.258865,746.455750 225.771576,755.634338 
	C228.057449,759.440369 229.809692,763.362732 230.140030,767.706482 
	C230.993439,778.928284 233.991760,789.665466 237.448685,800.253601 
	C241.481827,812.606812 247.830627,823.282654 260.300262,829.181702 
	C266.045227,831.899475 271.465607,831.977722 276.978577,828.947693 
	C278.707275,827.997559 281.039734,827.304199 281.168762,825.062439 
	C281.312164,822.571045 278.740265,822.073975 277.019409,821.372192 
	C269.195923,818.181641 264.571045,812.553162 263.803192,804.121826 
	C263.229736,797.825378 262.968842,791.493835 262.766266,785.171570 
	C262.382812,773.203186 262.441803,773.201172 251.424500,769.228577 
	C251.268036,769.172119 251.098938,769.147766 250.946793,769.082581 
	C249.042877,768.267456 247.119278,767.286926 247.448380,764.835144 
	C247.819122,762.073242 250.067642,761.677490 252.357010,761.695435 
	C256.751160,761.729919 260.821381,763.347656 265.012970,764.372437 
	C276.970276,767.295654 288.473389,771.891602 300.641602,774.039673 
	C302.402893,774.350586 304.273071,775.149231 305.318024,772.721863 
	C304.281006,770.231506 301.822449,769.766724 299.792786,768.792847 
	C282.524628,760.507324 265.233978,752.268799 247.956741,744.002197 
	C246.907837,743.500305 245.852600,742.968506 244.910156,742.296509 
	C243.110855,741.013489 241.172287,739.547424 242.540466,737.011292 
	C243.784241,734.705811 245.949753,734.624695 248.194778,735.592407 
	C249.417984,736.119751 250.635834,736.660889 251.842361,737.225159 
	C271.001190,746.185181 290.157806,755.149902 309.988281,764.465454 
M783.801086,813.115417 
	C776.270081,829.847839 758.278748,831.593811 746.416443,816.973389 
	C744.112854,814.134155 741.834167,811.208862 740.023438,808.048584 
	C735.554382,800.248840 731.370605,792.285828 727.054260,784.398254 
	C726.316589,783.050049 725.941772,781.294983 723.926941,780.939209 
	C722.568298,784.279114 723.529297,787.188904 724.717041,789.887695 
	C732.360291,807.254639 739.664368,824.782227 750.325256,840.655945 
	C753.019043,844.666870 754.687073,849.366699 756.826477,853.750000 
	C756.374756,854.021362 755.923035,854.292786 755.471313,854.564209 
	C743.079956,841.062256 734.789307,824.734985 725.701477,808.948425 
	C730.228333,823.624390 737.434082,836.872559 746.067627,849.409485 
	C747.330444,851.243164 749.546143,853.020752 747.973572,856.481689 
	C739.943481,850.809082 737.281067,841.153931 729.672241,834.540955 
	C734.280273,852.494873 740.082520,868.898193 751.944702,882.392456 
	C763.649963,895.708313 778.245178,902.686340 796.249573,900.707947 
	C810.885986,899.099548 822.046387,892.209351 827.702209,878.007812 
	C834.755859,860.296082 836.071594,841.959229 833.413940,823.239929 
	C833.544617,828.187927 833.972290,833.136230 834.214478,838.093628 
	C834.290894,839.657104 834.628113,841.822327 832.422180,842.208679 
	C830.038452,842.626160 829.324463,840.531616 828.935913,838.756226 
	C828.018738,834.565369 827.315918,830.327576 826.487610,825.901550 
	C825.670044,827.954346 827.142578,831.271729 824.206787,831.485962 
	C821.201660,831.705261 821.133240,828.424744 820.725159,826.297302 
	C819.566833,820.258728 818.746643,814.156311 817.667664,808.101440 
	C815.930298,798.352356 814.707275,788.495361 811.742493,778.960449 
	C810.993225,792.069885 814.800964,805.155762 812.406128,819.645996 
	C807.633728,815.244446 808.283936,810.697876 807.793457,806.627380 
	C806.004333,791.781006 805.395081,776.777771 801.769104,762.180420 
	C801.396790,760.681763 801.493408,758.877991 799.022156,758.087952 
	C795.296509,776.714539 791.935425,795.208923 783.801086,813.115417 
M555.482849,494.982208 
	C562.505493,489.730194 568.186523,483.222961 573.020935,475.969482 
	C580.663696,464.502502 585.137024,451.942993 585.625977,438.089630 
	C585.694092,436.159637 586.247253,433.592072 583.804138,432.886078 
	C579.614563,431.675354 575.300293,430.270905 570.490784,432.086639 
	C571.136169,435.065613 571.991028,437.774384 572.228516,440.536224 
	C572.390991,442.426178 575.169006,445.483459 570.670776,446.372772 
	C571.296448,450.477356 573.509033,454.816010 571.184265,460.383270 
	C564.882385,452.058136 564.837769,442.280396 560.964539,433.853119 
	C560.010620,447.258850 566.156311,460.519043 561.164673,475.269684 
	C557.129028,462.461090 556.874207,449.847321 551.449158,437.239624 
	C552.728821,451.579376 557.195435,464.229706 555.991638,477.554260 
	C551.344238,469.182587 549.046143,460.138031 546.197937,451.160400 
	C546.983948,460.467407 547.769897,469.774414 548.555847,479.081421 
	C547.854126,479.177826 547.152405,479.274231 546.450684,479.370636 
	C542.167236,465.518951 539.818359,451.172455 536.277527,437.035370 
	C537.141235,449.265869 538.005005,461.496368 538.868713,473.726868 
	C538.070435,473.814087 537.272217,473.901276 536.473938,473.988464 
	C532.020996,462.829224 533.754333,450.241821 529.156311,438.184265 
	C529.449158,449.880463 532.334167,460.620941 530.251709,471.679016 
	C525.684448,460.630951 524.018677,448.892395 521.033752,437.473938 
	C520.666382,438.304657 520.568726,439.094879 520.682007,439.853607 
	C521.517578,445.447693 522.446899,451.028290 523.229065,456.629578 
	C523.470215,458.356445 523.154236,460.168549 521.003174,460.466339 
	C518.766113,460.775970 518.315735,458.913452 517.925171,457.286102 
	C517.694702,456.325745 517.812683,455.286041 517.626831,454.309998 
	C516.626343,449.054565 516.194519,443.645477 513.641846,438.746429 
	C512.035034,445.053406 516.013611,451.367126 513.869202,457.908386 
	C510.836182,456.593781 510.768219,454.233124 510.304596,452.208130 
	C509.488220,448.642334 508.937225,445.016541 508.169861,441.438446 
	C507.713409,439.310120 506.851746,437.551788 503.866425,438.947754 
	C503.881958,443.915314 505.777954,448.619659 506.249542,453.526550 
	C506.385132,454.937469 506.712219,456.833923 504.595856,457.102875 
	C502.874054,457.321716 502.492157,455.649536 502.142273,454.426331 
	C500.908630,450.113190 499.792877,445.766144 498.647980,441.427856 
	C498.160034,439.579132 498.129547,437.335632 494.963898,437.540924 
	C493.161926,443.027649 498.017090,448.408905 495.030090,454.652618 
	C490.269531,449.311188 489.855530,442.913086 487.755188,436.436371 
	C485.670563,439.877899 487.716278,442.214691 488.042603,444.642639 
	C488.202484,445.831909 488.358551,447.094330 486.913483,447.567108 
	C485.532013,448.019043 484.582825,447.068207 484.176636,445.982239 
	C483.187256,443.337097 482.504089,440.578308 481.540436,437.922302 
	C480.699219,435.603699 480.125336,432.983032 477.188202,431.863800 
	C476.573914,437.582794 480.880951,442.363892 479.338928,448.105560 
	C476.430786,447.285156 475.827362,445.305115 475.137146,443.484222 
	C473.662537,439.593933 472.302032,435.672272 471.489349,431.563812 
	C470.881348,428.490143 469.502228,425.969910 465.559082,425.925903 
	C464.269745,431.163116 468.168549,435.944672 466.330292,442.442017 
	C460.721588,436.292999 461.438141,428.479065 457.560883,422.164490 
	C457.603149,428.142487 460.608582,433.060028 460.370117,439.292450 
	C454.690918,436.817719 454.391937,431.995605 452.538544,427.140747 
	C452.228485,430.616333 451.606476,433.200287 451.846161,435.701630 
	C452.654480,444.138245 453.755432,452.547150 454.776428,460.962769 
	C455.013428,462.916138 455.277130,464.825073 453.042114,466.630585 
	C449.440643,461.094330 449.723602,454.659546 447.166321,447.695282 
	C447.333984,458.523712 450.351135,467.943695 448.417847,477.713684 
	C445.668335,476.949066 445.477783,475.677155 445.262024,474.599701 
	C442.750153,462.057312 439.161224,449.693115 438.752563,436.797119 
	C438.646088,433.437347 437.845123,431.989044 433.939514,432.945007 
	C425.695007,434.962982 425.253540,435.306183 426.742554,443.652679 
	C427.179840,446.103729 427.530487,448.580719 428.147308,450.987793 
	C443.160278,509.571198 514.844788,525.574036 555.482849,494.982208 
M490.856720,741.013184 
	C480.248840,743.467957 469.759125,743.160583 459.391327,739.712036 
	C453.347992,737.701843 452.934174,737.948669 453.065216,744.554688 
	C453.497589,766.354187 453.040131,788.160278 453.962830,809.960510 
	C454.736877,828.247864 453.908356,846.579529 455.045166,864.870300 
	C455.212677,867.565674 455.080322,870.182861 458.171234,871.576660 
	C468.034668,876.024475 478.176239,876.475281 488.316711,873.147522 
	C494.385864,871.155762 495.525208,868.134644 494.015503,861.201477 
	C492.952454,861.802551 492.019073,862.458496 490.991669,862.891052 
	C482.240845,866.574951 473.308380,867.204529 464.203125,864.331787 
	C462.730103,863.867065 461.181671,863.177917 461.558868,861.296082 
	C461.890717,859.640320 463.502808,859.718933 464.833435,859.720947 
	C466.163300,859.722961 467.516724,859.698608 468.818817,859.923401 
	C475.910950,861.147766 482.649231,859.734131 489.436737,857.739563 
	C493.248871,856.619385 494.203857,854.555115 494.149689,850.867554 
	C493.941742,836.718933 493.987610,822.566345 493.964111,808.415283 
	C493.929871,787.770874 493.969879,767.125977 493.808807,746.482666 
	C493.793823,744.564758 495.249390,741.556824 490.856720,741.013184 
M637.098450,527.786743 
	C618.536682,532.456726 600.031433,537.251099 582.336853,544.779053 
	C547.230713,559.714417 515.862854,579.918701 490.831787,609.121887 
	C485.223846,615.664612 480.923828,623.130310 475.656921,631.101074 
	C482.237793,632.460449 487.827850,633.928833 493.512756,634.668213 
	C496.770630,635.091858 498.466095,632.799072 498.545349,629.044861 
	C494.609955,629.741821 490.477203,631.330383 489.167908,625.927368 
	C486.856812,626.003784 484.806122,628.477600 482.915100,626.057373 
	C480.899261,623.477417 483.352631,621.736206 484.482452,619.909424 
	C485.700439,617.940125 487.224213,616.138123 488.759216,614.390076 
	C513.176086,586.585083 543.776245,567.331482 576.546448,551.124512 
	C578.718384,550.050415 581.975708,547.797180 583.557800,550.984741 
	C585.113159,554.118408 581.375549,555.307251 579.244385,556.579834 
	C567.949158,563.324158 556.485352,569.790161 545.265869,576.656372 
	C535.856812,582.414612 526.956177,588.936829 518.452576,595.983582 
	C519.591064,595.639587 520.567993,595.064941 521.487183,594.409119 
	C538.820557,582.042908 557.794128,572.789551 577.536926,565.038696 
	C579.762573,564.164795 583.213501,561.579895 584.502686,564.809326 
	C585.718872,567.855591 581.502441,568.539734 579.299561,569.601013 
	C556.910645,580.386658 534.866150,591.744690 515.155029,607.102539 
	C514.080261,607.939880 512.662903,608.507019 511.986725,610.880310 
	C535.450806,591.941345 561.718933,579.904968 588.863892,569.534912 
	C591.336792,568.590271 593.942932,567.965759 596.523743,567.344238 
	C597.918396,567.008362 599.236389,567.442993 599.822083,568.907349 
	C600.354980,570.239746 599.541565,571.231323 598.502625,571.815125 
	C596.622498,572.871643 594.677856,573.839111 592.687439,574.669495 
	C570.847046,583.781189 549.106689,593.088806 529.365723,606.386902 
	C527.710876,607.501709 526.115784,608.710327 524.538757,609.934448 
	C522.993286,611.134094 521.506470,612.409241 519.993835,613.651245 
	C535.907349,605.752380 551.554260,597.995178 567.873474,591.631531 
	C596.096741,580.626099 625.014404,571.432495 652.630676,558.831787 
	C665.514893,552.953003 678.417236,547.134460 690.793884,540.241028 
	C692.806885,539.119812 695.924500,538.322510 695.159729,534.889282 
	C693.753540,534.184326 692.896118,534.804871 692.021912,535.251038 
	C673.455261,544.726013 654.195557,552.588074 634.675598,559.835388 
	C632.652649,560.586548 629.754639,562.755676 628.623291,559.683472 
	C627.555908,556.785095 631.188599,556.365417 633.115967,555.502197 
	C645.880249,549.785156 658.755127,544.313293 671.488586,538.529724 
	C678.654785,535.274780 686.202087,532.714294 693.402954,527.681396 
	C692.077026,527.681396 691.552185,527.533203 691.166931,527.702576 
	C671.017456,536.559631 650.145569,543.399780 629.148315,549.878845 
	C627.440491,550.405884 624.983582,552.414612 623.892151,549.821838 
	C622.631775,546.827698 625.983948,546.620911 627.729736,545.778320 
	C635.996582,541.788391 644.784729,539.127808 653.366638,535.942017 
	C660.624939,533.247559 667.917969,530.646545 675.195618,528.004150 
	C660.555603,532.024231 645.742554,535.162598 631.214417,539.349060 
	C628.981201,539.992554 626.706604,540.526733 624.419739,540.936584 
	C622.990662,541.192627 621.716187,540.594788 621.240173,539.131348 
	C620.770569,537.687622 621.925232,537.021118 622.966309,536.494812 
	C624.299988,535.820679 625.675781,535.212585 627.076172,534.690552 
	C637.074036,530.963196 647.488037,528.641541 657.707336,525.661194 
	C668.386169,522.546936 679.118530,519.561096 688.416260,512.984375 
	C671.617065,518.013245 654.937683,523.438049 637.098450,527.786743 
M371.401733,580.974060 
	C389.402222,588.082031 407.419464,595.151184 424.615479,604.159302 
	C416.546875,597.862122 407.520325,593.254822 398.595276,588.473083 
	C390.668549,584.226135 382.747589,579.967712 374.863220,575.642944 
	C373.283966,574.776672 371.295807,573.700012 372.097382,571.483337 
	C372.986847,569.023560 375.334900,569.645386 377.287811,569.895691 
	C378.093719,569.998962 378.898102,570.343567 379.636353,570.712219 
	C406.924133,584.339661 434.406006,597.643372 455.944550,620.177490 
	C462.216309,626.739136 462.086578,628.878418 453.854034,633.171570 
	C457.780731,636.965027 461.349915,633.918701 464.837341,632.965942 
	C468.016388,632.097473 468.280304,630.215393 466.186371,627.828918 
	C454.514709,614.527100 442.476898,601.616699 427.223358,592.248291 
	C411.448364,582.559631 394.727295,574.633179 378.332825,566.097046 
	C369.094635,561.286926 359.942535,556.311340 349.608917,550.800964 
	C350.846588,553.678162 352.199524,555.472229 350.354553,556.957703 
	C348.543732,558.415710 346.864075,556.990723 345.283752,556.208191 
	C334.236603,550.737976 323.029938,545.626709 311.702179,540.760010 
	C304.670349,537.739014 297.756165,534.422363 290.923981,530.971436 
	C288.821686,529.909607 286.090118,528.252380 287.706879,525.185913 
	C289.304962,522.154968 291.956360,523.498230 294.279022,524.509583 
	C300.314301,527.137390 306.341064,529.784607 312.371216,532.424133 
	C304.631775,527.235229 296.581421,522.681702 288.505951,518.173157 
	C285.865784,516.699158 284.532593,518.209473 283.549042,520.482605 
	C280.625977,527.238281 279.201599,534.431458 277.185211,541.459534 
	C275.628693,546.884766 277.316559,549.560303 282.129181,552.021729 
	C312.106018,567.353516 342.775848,581.120361 373.930542,593.871338 
	C393.334534,601.812927 413.080627,609.030762 431.572906,619.037781 
	C437.721680,622.365173 443.469086,626.434326 449.399963,630.164429 
	C439.278473,621.964722 428.637390,614.556458 417.201111,608.429749 
	C404.123444,601.423645 390.212646,596.199036 376.705933,590.106995 
	C372.158081,588.055786 367.739197,585.707153 363.331726,583.362244 
	C361.784149,582.538818 359.489197,581.550476 360.359039,579.391479 
	C361.386078,576.842163 363.774536,578.087891 365.606354,578.642456 
	C367.348114,579.169678 369.003265,579.983154 371.401733,580.974060 
M348.422668,310.329224 
	C348.155457,310.169769 347.896423,309.991058 347.612701,309.870392 
	C347.567261,309.851074 347.359589,310.074738 347.313782,310.214508 
	C344.065613,320.125275 344.433502,329.959076 347.058411,340.026825 
	C351.334290,356.426880 354.671692,372.997833 355.570587,390.038605 
	C356.075867,399.616547 354.309845,408.919495 353.738434,418.355927 
	C353.192169,427.377136 357.070923,433.289825 365.819183,435.912628 
	C367.750519,436.491669 370.015015,436.850769 371.137482,438.448578 
	C373.489227,441.796326 376.431580,441.275208 379.546478,440.401550 
	C382.106323,439.683624 384.667297,438.926483 387.147949,437.977905 
	C394.293121,435.245789 394.825165,434.001770 392.682037,426.808777 
	C385.935791,404.166412 377.691956,382.026978 370.183533,359.640747 
	C369.018646,356.167603 367.554199,352.666412 367.817413,348.996765 
	C368.083557,345.285919 366.538239,342.717133 364.277863,340.104919 
	C356.875427,331.550201 351.662628,321.783966 348.422668,310.329224 
M251.678635,610.679077 
	C250.898407,601.183655 250.118164,591.688293 249.337921,582.192871 
	C248.768188,582.121399 248.198441,582.049988 247.628708,581.978516 
	C238.744354,614.433472 229.860001,646.888489 220.975662,679.343445 
	C223.697372,678.726685 225.006439,677.380127 226.593079,676.593445 
	C232.625092,673.602661 235.396851,668.926331 236.128265,662.151062 
	C236.937210,654.657471 241.176880,648.737244 248.066055,645.375305 
	C252.931000,643.001221 254.150208,639.511780 253.565170,634.450989 
	C252.688889,626.870789 252.293594,619.235046 251.678635,610.679077 
M200.535507,765.943298 
	C204.742523,772.096436 206.192230,779.463928 209.189774,787.584900 
	C215.641418,775.414185 224.950928,765.231628 214.374466,752.086792 
	C213.566635,751.082764 213.171249,749.715942 212.706085,748.472107 
	C208.604599,737.504211 208.445923,726.682007 214.224564,716.205078 
	C218.320862,708.778442 218.729111,705.863464 216.209808,696.818848 
	C212.732285,708.749756 206.262680,718.969299 201.739761,730.033691 
	C197.063232,741.473633 194.313629,753.242554 200.535507,765.943298 
M411.511261,382.981659 
	C410.100311,381.572968 408.693542,380.160034 407.277344,378.756683 
	C405.602936,377.097382 403.759583,375.027191 401.310883,376.780701 
	C399.151306,378.327148 400.302246,380.761810 401.095337,382.720795 
	C406.266815,395.494598 411.512970,408.238129 416.730011,420.993500 
	C417.600708,423.122375 418.820862,424.680450 421.425629,424.761292 
	C427.278534,424.942871 433.029388,424.471802 438.656158,422.735992 
	C440.398926,422.198364 441.781036,421.336365 441.870392,419.417572 
	C442.104736,414.383301 442.107849,409.586945 437.223694,406.083679 
	C428.017212,399.480225 420.109283,391.362244 411.511261,382.981659 
M373.421906,350.494904 
	C372.890137,352.240784 373.744446,353.757202 374.237793,355.326752 
	C381.825348,379.465607 390.835327,403.142761 397.724304,427.505219 
	C398.899323,431.660614 401.015411,432.208221 404.749908,430.826965 
	C408.698029,429.366608 410.598969,427.256042 409.043610,422.924133 
	C408.145355,420.422333 407.739868,417.729889 406.718445,415.288177 
	C398.556396,395.777527 390.500793,376.226471 383.063263,356.424072 
	C381.505890,352.277618 378.001129,350.585785 373.421906,350.494904 
M570.668823,410.163940 
	C564.610596,417.727936 565.447693,419.988464 575.212219,421.772552 
	C578.792969,422.426758 582.481567,422.477020 586.075623,423.075256 
	C590.667603,423.839569 593.096558,422.232391 594.143860,417.541718 
	C597.227051,403.733246 602.032410,390.433807 606.597107,377.067352 
	C607.098450,375.599426 608.248047,374.103271 606.584717,371.263458 
	C595.847839,385.460907 580.313538,394.459106 570.668823,410.163940 
M537.064758,622.462646 
	C580.081177,603.557617 623.114929,584.690186 665.233093,563.831665 
	C659.730164,565.774231 654.507629,568.361084 649.100647,570.476562 
	C623.710083,580.410217 598.213562,590.074768 572.863953,600.110962 
	C554.149353,607.520203 535.374023,614.890686 518.872498,626.815369 
	C516.370972,628.623169 513.781677,630.326904 512.037964,633.033691 
	C512.512329,633.318359 512.696167,633.504639 512.778564,633.467285 
	C520.641418,629.901489 528.496582,626.318787 537.064758,622.462646 
M451.243652,658.811829 
	C450.700073,663.827576 452.258087,667.709045 457.309052,669.481934 
	C464.731293,672.087036 472.313080,673.839722 480.251953,672.666565 
	C491.999908,670.930603 496.725250,663.448486 492.662170,652.740967 
	C481.562103,654.962036 470.298767,655.291870 459.185120,652.897888 
	C454.191711,651.822266 451.890472,653.127380 451.243652,658.811829 
M470.922516,716.698608 
	C475.075592,716.671692 479.265350,716.988281 483.374481,716.549683 
	C493.284851,715.491821 496.723877,708.937012 492.215576,699.147156 
	C479.539948,703.894653 466.698334,703.350647 454.168732,698.444702 
	C450.616821,705.602417 452.470123,711.139709 458.976501,713.738037 
	C462.531921,715.157898 466.230316,716.101501 470.922516,716.698608 
M483.092560,679.987427 
	C472.740479,682.946899 462.882812,679.821289 453.127716,676.864197 
	C450.608673,686.797424 452.269470,690.180420 461.044434,692.901062 
	C470.149658,695.724121 479.376953,695.895386 488.439972,692.727478 
	C493.685944,690.893860 496.206970,684.978271 493.541504,679.690247 
	C491.318604,675.280090 487.787750,679.360535 484.842316,679.452454 
	C484.523407,679.462402 484.209900,679.645264 483.092560,679.987427 
M461.798096,725.001099 
	C459.213348,723.960938 456.628601,722.920776 453.825134,721.792542 
	C452.600769,726.572754 454.588196,729.356873 458.398041,730.808044 
	C468.397858,734.616943 478.585052,736.105896 489.150177,732.998962 
	C493.507294,731.717651 494.694702,729.330383 492.983215,725.030640 
	C487.723572,724.857056 482.954865,727.392334 477.769104,727.365356 
	C472.569275,727.338318 467.456085,727.189026 461.798096,725.001099 
M469.785095,645.702698 
	C475.665100,645.422729 481.750427,646.732727 488.424042,643.306702 
	C478.883514,640.535095 470.599670,640.051758 461.901428,643.708923 
	C464.240021,646.282166 466.691223,645.435120 469.785095,645.702698 
M701.830627,545.342346 
	C693.720947,549.534180 685.611267,553.726074 677.501648,557.917969 
	C677.609314,558.132629 677.716980,558.347290 677.824646,558.561890 
	C688.191833,553.880676 698.559082,549.199402 708.926270,544.518127 
	C706.282471,543.077454 704.422363,544.210388 701.830627,545.342346 
z"/>
<path fill="#000000" opacity="1.000000" stroke="none" 
	d="
M604.834656,113.128433 
	C589.302429,90.764450 571.272156,71.646439 546.123535,60.682240 
	C529.075745,53.249840 511.386292,50.560444 493.012207,55.216167 
	C489.434265,56.122761 486.130554,57.673557 482.806915,59.220165 
	C481.086639,60.020683 479.393585,61.456772 477.054840,60.155651 
	C477.116394,56.994781 479.627136,55.664261 481.749481,54.321712 
	C493.607422,46.820431 506.757843,45.649490 520.238647,47.260136 
	C551.769470,51.027359 576.071167,67.571747 596.185608,91.128799 
	C617.941772,116.608612 631.721558,146.427765 642.921021,177.648575 
	C645.705994,185.412109 647.479309,193.758514 653.955750,199.733215 
	C654.800964,200.512985 655.489441,201.734116 654.434082,202.825500 
	C653.023499,204.284241 651.127014,204.710907 649.412476,203.653229 
	C646.858765,202.077927 644.637512,200.123322 643.514832,197.116623 
	C639.615417,186.673920 635.591736,176.277695 631.666870,165.844406 
	C624.723633,147.387070 616.104065,129.786255 604.834656,113.128433 
z"/>
<path fill="#000000" opacity="1.000000" stroke="none" 
	d="
M394.610291,116.600639 
	C377.623688,143.238586 366.468353,172.120392 356.196564,201.401703 
	C354.262604,206.914688 352.107452,212.333237 348.848297,217.220169 
	C347.800140,218.791885 346.355865,220.244064 344.282257,219.031052 
	C342.264465,217.850708 342.622650,215.986481 343.553284,214.210495 
	C354.488403,193.342758 361.051147,170.637878 370.873840,149.294525 
	C382.525391,123.977249 396.177917,100.065910 417.225159,81.190758 
	C427.521881,71.956627 438.727661,64.298462 452.858704,62.211746 
	C456.505859,61.673172 459.966797,62.113308 464.365204,64.514214 
	C457.924988,66.245712 452.537292,66.976738 447.464478,69.002937 
	C426.002106,77.575546 410.607330,93.083282 397.885315,111.739563 
	C396.852722,113.253807 395.834869,114.778061 394.610291,116.600639 
z"/>
<path fill="#000000" opacity="1.000000" stroke="none" 
	d="
M511.399048,89.129272 
	C534.148560,93.288803 551.424255,105.843369 566.789062,121.690147 
	C582.631653,138.029709 595.486328,156.685883 608.621277,175.141846 
	C613.445435,181.920227 618.710205,188.384384 623.739075,195.018356 
	C624.804932,196.424423 626.446777,197.551346 626.311401,199.937347 
	C623.328186,201.070709 621.295044,199.136749 619.279602,197.608292 
	C613.747253,193.412598 609.941406,187.693405 606.019409,182.106064 
	C592.912415,163.433838 580.280090,144.393387 564.542542,127.738922 
	C552.060913,114.530113 538.160278,103.251892 520.700806,97.206375 
	C508.228363,92.887688 495.919189,92.445274 484.183563,99.694489 
	C483.049530,100.394997 481.816071,101.320282 480.610199,100.006531 
	C479.213379,98.484749 480.307220,97.160027 481.380554,96.119202 
	C486.138306,91.505516 492.084473,89.381340 498.500061,88.824837 
	C502.618134,88.467636 506.807098,88.927101 511.399048,89.129272 
z"/>
<path fill="#000000" opacity="1.000000" stroke="none" 
	d="
M415.045898,198.941711 
	C408.633850,212.456833 400.574890,224.416687 390.740234,235.177765 
	C389.732239,236.280746 388.652222,237.334396 387.503540,238.287933 
	C386.235413,239.340591 384.783234,240.711609 383.100403,239.370255 
	C381.113708,237.786743 382.355316,235.974716 383.451141,234.542297 
	C389.514435,226.616257 396.018250,219.011459 401.132172,210.395645 
	C413.822784,189.014786 421.849762,165.828735 427.670624,141.783051 
	C428.921631,136.615158 430.213501,131.434555 432.545013,126.610527 
	C436.602356,118.215637 442.931305,112.425346 452.102264,110.163231 
	C455.362976,109.358948 458.734009,109.187653 461.645538,111.482094 
	C462.444977,112.112091 463.110352,112.906487 462.852356,114.031509 
	C462.594940,115.153885 461.690857,115.794418 460.662231,115.705864 
	C442.514252,114.143463 437.333984,127.288475 433.617432,140.703964 
	C429.446686,155.758865 425.760773,170.935059 420.303040,185.599823 
	C418.679749,189.961533 416.910858,194.269028 415.045898,198.941711 
z"/>
<path fill="#000000" opacity="1.000000" stroke="none" 
	d="
M376.629242,212.629227 
	C389.217346,199.008789 399.933136,184.560822 406.229492,167.110580 
	C409.824615,168.395508 409.470337,170.706024 408.707428,172.947327 
	C401.159149,195.124420 387.665131,213.144989 369.794708,228.008347 
	C367.450043,229.958481 364.238678,233.852585 361.377625,230.334122 
	C358.630402,226.955673 363.386932,225.095108 365.409088,223.047897 
	C368.909760,219.503876 372.708527,216.254318 376.629242,212.629227 
z"/>
<path fill="#000000" opacity="1.000000" stroke="none" 
	d="
M625.093384,380.962372 
	C619.952454,396.440002 615.965515,411.817139 613.702759,428.108185 
	C609.648743,426.254852 610.350098,423.994629 610.443848,421.919495 
	C610.944519,410.828094 614.473511,400.412567 617.658203,389.936005 
	C621.957947,375.791656 626.332947,361.668091 630.909912,347.611908 
	C631.746521,345.042511 632.382385,340.180176 635.877502,341.501678 
	C639.443604,342.849976 635.934204,346.384644 635.087769,348.702301 
	C631.265137,359.169922 628.442078,369.934967 625.093384,380.962372 
z"/>
<path fill="#000000" opacity="1.000000" stroke="none" 
	d="
M744.416992,773.350037 
	C747.286072,771.810547 749.783508,770.114868 753.212158,771.354553 
	C751.927246,774.927612 748.931519,776.179443 746.055542,776.900085 
	C743.458923,777.550598 742.138306,776.248230 744.416992,773.350037 
z"/>
<path fill="#000000" opacity="1.000000" stroke="none" 
	d="
M467.283386,80.040344 
	C467.387634,78.026665 467.447998,76.332214 469.414490,75.692665 
	C473.224182,78.979889 473.279846,80.840454 469.687653,84.839027 
	C467.434174,84.148277 467.801270,82.049889 467.283386,80.040344 
z"/>
<path fill="#000000" opacity="1.000000" stroke="none" 
	d="
M468.054382,63.265862 
	C466.577606,59.876759 468.284515,58.125782 470.948639,57.606922 
	C472.766968,57.252789 473.390686,59.190529 473.206451,60.718571 
	C472.853790,63.644051 471.155792,64.692955 468.054382,63.265862 
z"/>
<path fill="#000000" opacity="1.000000" stroke="none" 
	d="
M460.106140,273.270264 
	C461.373718,275.328400 461.683197,277.110291 459.967712,278.533813 
	C458.306274,279.912476 456.521362,279.252014 454.864258,278.302460 
	C452.702423,277.063690 450.671387,275.509308 448.382751,274.594208 
	C437.985718,270.437195 428.411591,270.085175 421.149170,280.938873 
	C418.396393,285.052917 415.976227,285.099609 412.332947,282.197083 
	C408.176544,278.885742 403.700073,275.962494 400.145538,271.958771 
	C398.971497,270.636353 397.453400,269.114563 398.352509,267.132996 
	C399.196960,265.271912 401.279419,265.442047 402.786407,265.779480 
	C411.673340,267.769623 419.401215,264.741730 427.090088,260.816803 
	C431.197479,258.720123 435.737000,258.455505 440.200378,259.944092 
	C447.915314,262.517090 454.631165,266.643616 460.106140,273.270264 
z"/>
<path fill="#000000" opacity="1.000000" stroke="none" 
	d="
M588.302002,275.004028 
	C582.145142,268.947174 575.961304,263.633514 566.922119,264.297668 
	C560.258301,264.787354 553.536377,265.451141 549.589600,272.114288 
	C549.424866,272.392395 549.171509,272.649994 548.900940,272.828278 
	C546.951965,274.112732 545.247864,277.274017 542.644714,275.331879 
	C540.369141,273.634064 542.291077,270.991058 543.148438,268.944794 
	C550.667114,250.999863 566.569580,246.050522 583.109497,256.633911 
	C587.010071,259.129822 590.799805,258.909210 595.020142,258.078918 
	C597.574158,257.576447 601.067322,255.716064 602.753113,258.870331 
	C604.328857,261.818787 601.370728,264.182709 599.499329,266.069916 
	C596.188599,269.408508 593.652527,273.788910 588.302002,275.004028 
z"/>
<path fill="#000000" opacity="1.000000" stroke="none" 
	d="
M507.391968,340.743347 
	C500.309113,340.834412 493.484436,332.296844 494.265198,324.842133 
	C494.419647,323.367310 494.556610,321.705292 495.306091,320.507904 
	C500.618774,312.019867 499.002533,303.308807 496.517090,294.484070 
	C495.482147,290.809448 494.663422,287.069641 493.870789,283.333038 
	C493.498413,281.577545 493.918365,279.898468 495.808929,279.220398 
	C497.902496,278.469543 499.032104,280.018158 499.576935,281.569824 
	C500.950684,285.482361 502.353973,289.428223 503.197083,293.474976 
	C505.560364,304.817963 508.349670,315.825287 518.325562,323.329254 
	C520.315857,324.826416 521.299255,327.199554 519.202820,329.399506 
	C517.198181,331.503143 514.820190,330.708344 512.899231,329.193085 
	C511.500427,328.089752 510.467407,326.509491 509.323792,325.099274 
	C507.895996,323.338623 506.976318,321.031860 504.402161,320.543488 
	C500.617432,325.054138 501.203461,328.833832 506.445984,334.873260 
	C507.846680,336.486816 510.597534,337.915955 507.391968,340.743347 
z"/>
<path fill="#000000" opacity="1.000000" stroke="none" 
	d="
M633.820984,295.754608 
	C636.347046,291.762756 636.266541,288.658600 632.099426,286.251251 
	C630.114014,285.104279 629.292847,283.023102 628.880676,280.840271 
	C627.431946,273.168610 632.440125,261.802338 639.006775,257.791107 
	C641.297058,256.392120 643.604797,255.501709 645.592346,258.182312 
	C647.475952,260.722717 645.881592,262.691956 644.068665,264.189392 
	C641.259155,266.510040 639.322205,269.294342 638.490417,272.797974 
	C637.717651,276.053009 637.810486,278.963745 641.301514,280.954437 
	C644.865967,282.987030 646.089172,286.750488 645.713562,290.409088 
	C644.900391,298.329193 641.227722,304.920319 634.694031,309.705719 
	C633.906494,310.282532 632.944458,310.709839 631.998169,310.963501 
	C629.802673,311.551819 627.607422,311.569092 626.192017,309.413483 
	C624.793457,307.283752 625.463379,305.315674 627.056274,303.530731 
	C629.264526,301.056335 631.443237,298.555542 633.820984,295.754608 
z"/>
<path fill="#000000" opacity="1.000000" stroke="none" 
	d="
M552.144653,291.723724 
	C547.863159,285.081055 547.721924,278.602173 551.594788,272.205841 
	C556.046387,264.853668 564.135254,264.676239 569.049683,271.699738 
	C572.738342,276.971436 573.698975,282.586090 571.004395,288.606049 
	C567.084595,297.363342 559.354309,298.780731 552.144653,291.723724 
z"/>
<path fill="#000000" opacity="1.000000" stroke="none" 
	d="
M430.619202,283.066650 
	C434.414948,274.420319 440.597534,271.518463 447.195435,274.951569 
	C451.237152,277.054626 454.498810,284.271027 453.842255,289.657684 
	C453.105743,295.700287 449.295959,300.662079 444.351379,302.018341 
	C437.701599,303.842316 430.032806,296.419891 429.839203,287.860657 
	C429.806122,286.397827 430.270874,284.923737 430.619202,283.066650 
z"/>
<path fill="#000000" opacity="1.000000" stroke="none" 
	d="
M513.015991,377.319214 
	C505.235718,378.765533 497.859222,380.078339 490.411530,378.086639 
	C487.872589,377.407654 484.626953,376.658295 485.328094,373.188110 
	C485.979279,369.965363 489.215790,370.458801 491.594849,370.829010 
	C506.626099,373.168060 520.199341,369.415192 532.791504,361.309906 
	C533.350037,360.950378 533.881897,360.522705 534.485046,360.263977 
	C536.767029,359.285065 539.165344,358.814606 540.642578,361.354034 
	C542.035278,363.748260 540.424500,365.440247 538.550110,366.757324 
	C532.223633,371.202881 525.127441,373.975983 517.780945,376.178284 
	C516.352905,376.606384 514.886658,376.907013 513.015991,377.319214 
z"/>
<path fill="#000000" opacity="1.000000" stroke="none" 
	d="
M758.826233,568.035767 
	C753.239014,548.605164 747.605103,529.615295 739.769104,511.366272 
	C739.178650,509.991150 738.689270,508.570038 738.206177,507.152130 
	C737.734985,505.769135 737.765381,504.442505 739.326477,503.787567 
	C740.636047,503.238190 741.556030,504.063110 742.294556,505.026276 
	C744.658264,508.108917 745.947205,511.730194 747.393799,515.274902 
	C756.216980,536.895630 762.345703,559.383728 768.854004,581.752441 
	C780.379578,621.365356 789.916931,661.528809 801.897400,701.015930 
	C802.306091,702.363220 803.045349,703.813904 801.683289,705.609497 
	C798.550110,703.191833 797.688049,699.592773 796.468811,696.300537 
	C788.597900,675.046753 782.715576,653.182861 776.637390,631.377808 
	C770.784241,610.380127 764.829956,589.410645 758.826233,568.035767 
z"/>
<path fill="#000000" opacity="1.000000" stroke="none" 
	d="
M614.786255,459.373596 
	C602.107605,489.406006 582.935608,513.418274 554.924133,529.900635 
	C550.756104,532.353149 546.396118,534.394043 541.713135,535.685303 
	C540.126465,536.122742 538.250610,537.013367 537.398682,534.885742 
	C536.615173,532.928894 538.391968,531.937988 539.754944,531.014832 
	C540.574707,530.459595 541.494385,530.038513 542.400818,529.626770 
	C569.145752,517.477783 587.622864,496.875977 601.532715,471.656647 
	C604.099731,467.002350 606.262268,462.125122 608.618286,457.354095 
	C609.583435,455.399750 610.519958,453.027618 613.219421,453.657715 
	C616.293152,454.375122 615.196594,456.940613 614.786255,459.373596 
z"/>
<path fill="#000000" opacity="1.000000" stroke="none" 
	d="
M469.133850,531.756470 
	C471.803314,533.170105 476.179565,533.616028 474.642059,537.173828 
	C473.172058,540.575378 469.569885,538.219543 467.172607,537.153748 
	C451.030304,529.976868 437.179474,519.375732 424.184937,507.625427 
	C418.643463,502.614532 413.545929,497.108704 408.314270,491.761627 
	C406.746887,490.159668 405.290649,488.065399 407.502655,486.162628 
	C409.545837,484.405090 411.243103,486.328033 412.577728,487.751648 
	C422.142548,497.954712 431.909058,507.948242 443.225403,516.247925 
	C451.264587,522.144043 459.267426,528.148010 469.133850,531.756470 
z"/>
<path fill="#000000" opacity="1.000000" stroke="none" 
	d="
M511.570312,539.224182 
	C513.565613,539.905579 515.235291,540.675781 514.354675,542.784485 
	C513.521545,544.779236 511.418549,544.753052 509.654297,544.708923 
	C508.048492,544.668823 505.807251,544.414734 505.790222,542.438965 
	C505.759369,538.853027 508.821564,539.340088 511.570312,539.224182 
z"/>
<path fill="#000000" opacity="1.000000" stroke="none" 
	d="
M590.458252,545.229370 
	C593.779846,544.098328 596.744080,543.077942 599.749756,542.199280 
	C601.095032,541.805908 602.544373,542.011353 603.149780,543.452026 
	C603.850708,545.119873 602.411499,545.755249 601.264954,546.409485 
	C597.652405,548.470886 593.779907,549.934509 589.795105,551.036499 
	C588.332092,551.441101 586.245300,552.308655 585.394836,550.267456 
	C584.531555,548.195496 586.778198,547.602356 587.970276,546.621277 
	C588.597168,546.105347 589.396362,545.798889 590.458252,545.229370 
z"/>
<path fill="#000000" opacity="1.000000" stroke="none" 
	d="
M293.691620,538.117065 
	C307.789856,545.759338 321.554108,553.213623 335.304199,560.693909 
	C336.471069,561.328674 337.579041,562.088806 338.651367,562.876465 
	C340.254059,564.053589 342.449921,565.334900 341.140991,567.614624 
	C339.942169,569.702637 337.803436,568.387512 336.236023,567.653687 
	C320.100830,560.099182 303.984375,552.504272 287.899353,544.843567 
	C285.241364,543.577637 282.776855,541.824646 284.369171,538.267456 
	C286.088562,534.426331 288.904663,535.970520 291.547607,537.080017 
	C292.161316,537.337585 292.752411,537.649109 293.691620,538.117065 
z"/>
</svg>